<svg width="24" height="24" viewBox="0 0 24 24" fill="none" xmlns="http://www.w3.org/2000/svg">
<path d="M10.1703 18.9993C10.3197 18.9998 10.4673 18.9668 10.6023 18.9028C10.7373 18.8388 10.8562 18.7453 10.9503 18.6293L15.7803 12.6293C15.9274 12.4504 16.0078 12.2259 16.0078 11.9943C16.0078 11.7627 15.9274 11.5382 15.7803 11.3593L10.7803 5.3593C10.6106 5.15508 10.3667 5.02666 10.1022 5.00228C9.83782 4.9779 9.57454 5.05956 9.37032 5.2293C9.16611 5.39904 9.03768 5.64295 9.0133 5.90738C8.98892 6.1718 9.07058 6.43508 9.24032 6.6393L13.7103 11.9993L9.39032 17.3593C9.26804 17.5061 9.19036 17.6848 9.16648 17.8744C9.1426 18.0639 9.17352 18.2563 9.25558 18.4289C9.33763 18.6014 9.46739 18.7468 9.6295 18.8479C9.79161 18.949 9.97929 19.0015 10.1703 18.9993Z" fill="white"/>
</svg>
