<svg version="1.2" xmlns="http://www.w3.org/2000/svg" viewBox="0 0 30 30" width="30" height="30">
	<title>image</title>
	<defs>
		<clipPath clipPathUnits="userSpaceOnUse" id="cp1">
			<path d="m0 0h30v30h-30z"/>
		</clipPath>
	</defs>
	<style>
		.s0 { fill: #000000 } 
		.s1 { fill: #ffffff } 
	</style>
	<g id="Clip-Path" clip-path="url(#cp1)">
		<g id="Layer">
			<path id="Layer" class="s0" d="m6.3 6.3h17.4l0.1 17.4-17.5 0.1z"/>
			<path id="Layer" fill-rule="evenodd" class="s1" d="m30 15c0 4-1.6 7.8-4.4 10.6-2.8 2.8-6.6 4.4-10.6 4.4-4 0-7.8-1.6-10.6-4.4-2.8-2.8-4.4-6.6-4.4-10.6 0-4 1.6-7.8 4.4-10.6 2.8-2.8 6.6-4.4 10.6-4.4 4 0 7.8 1.6 10.6 4.4 2.8 2.8 4.4 6.6 4.4 10.6zm-17.3-5.5q-0.2-0.1-0.4-0.1-0.3 0-0.5 0.1-0.3 0.1-0.4 0.3-0.1 0.2-0.1 0.5v9.4q0 0.3 0.1 0.5 0.1 0.2 0.4 0.3 0.2 0.1 0.5 0.1 0.2 0 0.4-0.1l6.6-4.7q0.2-0.2 0.3-0.4 0.1-0.2 0.1-0.4 0-0.2-0.1-0.4-0.1-0.2-0.3-0.4z"/>
		</g>
	</g>
</svg>