<svg width="46" height="46" viewBox="0 0 46 46" fill="none" xmlns="http://www.w3.org/2000/svg">
<rect width="46" height="46" rx="23" fill="white" fill-opacity="0.18"/>
<g clip-path="url(#clip0_530_184)">
<rect x="14.25" y="14.25" width="17.5" height="17.5" fill="black"/>
<path d="M38 23C38 26.9782 36.4196 30.7936 33.6066 33.6066C30.7936 36.4196 26.9782 38 23 38C19.0218 38 15.2064 36.4196 12.3934 33.6066C9.58035 30.7936 8 26.9782 8 23C8 19.0218 9.58035 15.2064 12.3934 12.3934C15.2064 9.58035 19.0218 8 23 8C26.9782 8 30.7936 9.58035 33.6066 12.3934C36.4196 15.2064 38 19.0218 38 23ZM20.7312 17.5494C20.5911 17.4496 20.4261 17.3903 20.2545 17.378C20.0828 17.3657 19.9111 17.4009 19.7581 17.4797C19.6052 17.5585 19.4768 17.6779 19.3872 17.8248C19.2976 17.9717 19.2501 18.1404 19.25 18.3125V27.6875C19.2501 27.8596 19.2976 28.0283 19.3872 28.1752C19.4768 28.3221 19.6052 28.4415 19.7581 28.5203C19.9111 28.5991 20.0828 28.6343 20.2545 28.622C20.4261 28.6097 20.5911 28.5504 20.7312 28.4506L27.2938 23.7631C27.4153 23.6764 27.5143 23.5619 27.5827 23.4292C27.651 23.2964 27.6867 23.1493 27.6867 23C27.6867 22.8507 27.651 22.7036 27.5827 22.5708C27.5143 22.4381 27.4153 22.3236 27.2938 22.2369L20.7312 17.5494Z" fill="white"/>
</g>
<defs>
<clipPath id="clip0_530_184">
<rect width="30" height="30" fill="white" transform="translate(8 8)"/>
</clipPath>
</defs>
</svg>
